<?xml version="1.0" standalone="no"?>
<!DOCTYPE svg PUBLIC "-//W3C//DTD SVG 20010904//EN"
 "http://www.w3.org/TR/2001/REC-SVG-20010904/DTD/svg10.dtd">
<svg version="1.0" xmlns="http://www.w3.org/2000/svg"
 width="16.000000pt" height="16.000000pt" viewBox="0 0 16.000000 16.000000"
 preserveAspectRatio="xMidYMid meet">

<g transform="translate(0.000000,16.000000) scale(0.001563,-0.001563)"
fill="#000000" stroke="none">
<path d="M1210 8512 c0 -10 -2 -21 -5 -24 -3 -3 -8 -43 -11 -89 -5 -84 -11
-134 -14 -134 -2 0 -5 -23 -14 -110 -3 -33 -8 -71 -10 -85 -2 -14 -7 -50 -11
-80 -8 -77 -15 -136 -21 -179 -3 -20 -6 -51 -8 -69 -2 -18 -6 -51 -10 -75 -9
-63 -25 -195 -30 -247 -2 -19 -6 -51 -10 -70 -3 -20 -8 -63 -11 -96 -3 -34 -7
-70 -9 -81 -6 -31 -17 -118 -21 -171 -2 -26 -4 -47 -5 -47 -2 0 -7 -36 -14
-105 -10 -93 -17 -144 -22 -170 -2 -14 -7 -50 -10 -80 -3 -30 -8 -68 -10 -85
-2 -16 -6 -52 -9 -80 -2 -27 -6 -59 -9 -70 -6 -28 -20 -179 -18 -187 1 -5 -1
-8 -5 -8 -5 0 -9 -19 -9 -43 -2 -41 -7 -94 -19 -192 -4 -27 -9 -66 -11 -85 -3
-19 -6 -48 -8 -65 -3 -16 -7 -52 -10 -79 -3 -26 -8 -67 -12 -90 -3 -22 -7 -57
-9 -76 -4 -41 -14 -124 -20 -160 -2 -14 -6 -47 -9 -75 -3 -27 -9 -70 -12 -95
-3 -25 -7 -63 -10 -85 -2 -22 -6 -53 -8 -70 -2 -16 -7 -59 -11 -95 -4 -36 -8
-67 -10 -70 -2 -3 -6 -35 -9 -70 -4 -36 -8 -78 -10 -95 -15 -118 -18 -144 -22
-175 -6 -63 -14 -124 -24 -190 -5 -36 -12 -92 -15 -125 -3 -33 -10 -89 -15
-125 -5 -36 -12 -92 -16 -125 -4 -33 -8 -73 -10 -90 -2 -16 -6 -46 -8 -65 -2
-19 -7 -58 -10 -85 -16 -121 -18 -173 -21 -400 -2 -132 1 -271 5 -310 16 -128
20 -160 26 -185 3 -14 7 -36 10 -50 16 -78 28 -124 56 -210 17 -52 33 -99 37
-105 3 -5 6 -12 6 -15 0 -7 89 -184 95 -190 3 -3 15 -21 27 -41 22 -39 24 -41
109 -143 65 -77 125 -135 187 -180 23 -17 44 -33 47 -36 7 -7 75 -51 120 -78
43 -25 180 -94 195 -97 5 -1 21 -6 35 -12 45 -18 140 -53 143 -52 1 1 22 -5
47 -12 49 -13 52 -14 90 -23 140 -30 183 -38 224 -41 22 -2 41 -4 41 -5 0 -4
45 -9 106 -13 37 -3 72 -8 78 -11 6 -4 11 -3 11 3 0 6 11 7 28 2 23 -7 457 -8
457 -2 0 1 34 4 75 6 41 1 75 4 75 5 0 1 18 3 40 5 35 3 67 7 165 20 14 2 35
6 46 8 12 3 39 8 60 12 47 8 69 13 69 15 0 1 11 3 25 5 14 2 50 11 80 20 30 9
62 16 70 17 8 0 20 5 26 9 6 5 23 10 38 11 14 1 26 6 26 10 0 4 3 7 8 6 4 0
16 2 27 7 11 4 56 21 100 38 44 17 95 39 113 49 18 10 39 18 47 18 8 0 19 8
24 18 6 9 11 13 11 9 0 -10 113 53 118 65 2 4 8 8 13 8 8 0 108 61 134 82 5 4
46 36 90 71 44 34 97 80 118 101 31 31 41 35 52 26 8 -7 15 -18 15 -25 0 -8 3
-15 8 -17 4 -1 23 -23 41 -48 101 -132 292 -291 439 -364 129 -65 356 -139
462 -152 14 -1 39 -5 55 -8 71 -12 114 -17 177 -21 37 -2 71 -6 75 -8 9 -6
485 0 553 7 56 5 166 17 200 21 14 2 48 6 75 9 28 3 75 11 105 17 30 6 69 13
85 15 17 3 66 14 110 25 44 11 89 22 100 24 11 1 34 8 50 15 17 6 39 14 50 16
17 3 71 20 135 42 8 3 20 6 25 8 6 1 30 11 55 22 42 18 69 29 88 33 10 3 273
137 297 152 58 35 234 153 257 171 14 12 41 32 59 46 77 58 309 281 379 365
115 138 290 382 290 404 0 6 4 11 8 11 4 0 18 19 30 43 12 23 37 69 57 102 46
79 117 225 196 400 19 43 32 80 31 88 -1 4 3 7 10 7 6 0 9 3 5 6 -3 3 4 29 17
58 12 28 24 54 25 58 2 11 8 26 34 98 13 36 25 68 26 72 3 13 12 41 27 81 8
20 11 37 9 37 -3 0 -1 9 5 21 6 11 13 28 15 37 2 9 13 49 25 87 11 39 22 78
25 88 2 10 14 52 26 95 12 42 23 88 24 102 2 14 4 25 5 25 1 0 3 7 5 15 1 8 7
33 13 55 6 22 13 52 16 68 3 15 7 35 10 45 3 9 8 35 11 57 9 55 11 68 18 85 3
8 8 29 10 45 5 28 21 119 32 182 3 16 8 42 10 58 3 17 11 70 19 119 8 49 15
92 14 95 0 3 1 8 2 11 4 11 9 48 14 100 3 30 8 66 11 80 2 14 7 45 9 70 11
101 22 185 26 185 0 0 3 27 5 60 3 33 7 83 10 110 3 28 7 79 11 115 3 36 7 83
9 105 19 208 32 451 40 745 2 91 6 175 9 188 3 12 0 22 -5 22 -6 0 -6 7 1 19
7 13 7 22 0 26 -7 4 -7 13 0 26 8 13 7 19 0 19 -6 0 -8 5 -4 12 9 14 10 69 1
91 -3 9 -2 19 4 22 5 4 6 11 3 17 -10 15 -10 178 -1 178 5 0 5 5 1 11 -4 7 -8
53 -10 103 -11 321 -23 523 -39 686 -3 30 -8 82 -11 115 -5 55 -11 118 -13
138 -1 4 -401 7 -890 7 -703 0 -890 -3 -894 -12 -2 -7 -1 -26 2 -43 4 -16 6
-56 6 -87 0 -32 2 -58 5 -58 3 0 6 -28 6 -63 1 -34 5 -132 9 -217 4 -85 9
-204 11 -265 4 -148 4 -840 0 -990 -4 -140 -17 -445 -22 -525 -2 -30 -6 -98
-9 -150 -11 -211 -14 -255 -15 -255 -1 0 -3 -18 -5 -40 -2 -36 -7 -87 -21
-235 -3 -25 -6 -70 -9 -100 -2 -30 -5 -55 -5 -55 -1 0 -3 -18 -5 -40 -2 -22
-6 -56 -9 -75 -3 -19 -8 -57 -12 -85 -3 -27 -7 -61 -9 -75 -9 -67 -18 -138
-21 -165 -2 -16 -6 -46 -9 -65 -6 -38 -21 -134 -30 -190 -8 -47 -15 -90 -19
-120 -2 -14 -9 -46 -15 -73 -6 -26 -14 -64 -17 -85 -3 -20 -8 -40 -10 -43 -2
-3 -6 -21 -9 -40 -3 -19 -18 -79 -32 -134 -14 -55 -26 -104 -28 -110 -1 -5 -4
-17 -7 -25 -3 -8 -23 -69 -44 -135 -20 -66 -47 -142 -59 -170 -12 -27 -30 -70
-40 -95 -49 -117 -154 -296 -223 -382 -78 -96 -223 -228 -251 -228 -6 0 -11
-4 -11 -8 0 -10 -100 -65 -100 -55 0 5 -4 2 -8 -5 -5 -7 -21 -15 -37 -18 -15
-3 -36 -9 -47 -15 -10 -5 -18 -7 -18 -3 0 3 -6 1 -13 -5 -8 -6 -29 -13 -48
-15 -19 -3 -34 -5 -34 -6 0 -12 -265 -19 -281 -7 -7 4 -16 7 -20 5 -18 -4 -81
15 -134 42 -60 31 -106 75 -136 130 -10 19 -23 38 -29 42 -5 4 -7 8 -3 8 4 0
3 12 -3 28 -6 15 -13 38 -16 52 -2 14 -8 43 -13 65 -10 44 -7 366 5 485 4 41
8 94 9 117 0 24 3 43 6 43 3 0 6 8 6 18 0 16 12 128 19 182 2 14 6 50 9 80 6
54 14 111 21 160 2 14 7 57 11 95 3 39 8 79 10 90 3 11 7 40 9 65 11 95 16
136 20 165 3 17 7 50 10 75 6 60 15 139 20 170 4 27 16 127 21 175 1 17 3 30
4 30 1 0 3 18 5 40 1 22 5 56 8 76 4 20 9 62 12 95 4 32 8 70 11 84 2 14 7 50
9 80 3 30 7 66 10 80 6 34 17 126 21 175 1 22 3 40 4 40 2 0 6 34 10 90 2 22
6 44 8 49 3 5 6 27 8 50 1 22 6 64 9 91 8 67 13 104 19 161 4 27 9 67 11 89 8
56 15 117 30 240 3 22 7 54 9 70 2 17 7 62 11 100 9 84 13 110 15 110 1 0 3
16 5 35 4 47 15 137 20 180 3 19 7 56 9 81 2 25 6 59 10 75 3 16 8 54 11 84 6
66 13 126 19 160 2 14 7 50 11 80 3 30 8 71 11 90 2 19 7 58 10 85 8 81 13
117 19 165 4 25 7 64 8 87 1 24 4 43 7 43 3 0 6 12 6 28 4 76 17 168 26 180 7
8 7 12 0 12 -6 0 -9 6 -7 13 2 6 6 29 9 49 3 21 6 41 7 45 6 33 12 33 -925 33
l-924 0 -7 -77 c-4 -43 -9 -87 -11 -98 -3 -11 -6 -42 -9 -70 -2 -27 -4 -50 -5
-50 -1 0 -4 -13 -5 -30 -5 -48 -15 -137 -21 -180 -4 -22 -8 -51 -9 -65 -5 -41
-16 -132 -21 -170 -2 -19 -6 -56 -7 -81 -2 -25 -6 -50 -9 -55 -2 -5 -5 -25 -6
-44 -2 -20 -5 -47 -7 -60 -3 -14 -8 -50 -10 -80 -3 -30 -7 -66 -10 -80 -3 -14
-8 -52 -10 -85 -3 -33 -7 -69 -9 -80 -2 -11 -7 -49 -11 -85 -4 -36 -9 -73 -11
-83 -2 -10 -6 -46 -10 -80 -3 -34 -8 -75 -10 -92 -2 -16 -6 -50 -8 -75 -3 -25
-5 -45 -6 -45 -1 0 -4 -20 -5 -45 -2 -25 -6 -54 -8 -65 -3 -11 -8 -47 -11 -80
-4 -33 -9 -78 -13 -100 -3 -22 -6 -52 -6 -67 0 -16 -3 -28 -6 -28 -3 0 -6 -19
-7 -43 0 -23 -4 -62 -7 -87 -7 -44 -15 -110 -23 -180 -2 -19 -7 -57 -10 -85
-3 -27 -6 -62 -7 -77 -1 -16 -4 -28 -7 -28 -3 0 -5 -12 -6 -27 -2 -59 -8 -113
-13 -113 -4 0 -6 -17 -7 -37 0 -21 -3 -63 -7 -93 -4 -30 -9 -77 -12 -105 -3
-27 -7 -66 -10 -85 -3 -19 -8 -55 -10 -80 -3 -25 -7 -61 -10 -80 -3 -19 -7
-55 -10 -80 -3 -25 -8 -63 -11 -85 -3 -22 -7 -58 -8 -80 -2 -22 -6 -56 -9 -75
-9 -48 -19 -127 -23 -175 -2 -22 -6 -58 -9 -80 -3 -22 -8 -53 -9 -70 -3 -28
-12 -97 -21 -170 -2 -16 -7 -55 -10 -85 -3 -30 -8 -66 -11 -80 -5 -31 -15
-121 -19 -175 -2 -22 -4 -40 -5 -40 -1 0 -3 -11 -5 -25 -4 -44 -15 -103 -31
-170 -9 -36 -18 -76 -20 -89 -3 -13 -11 -39 -19 -57 -8 -19 -12 -34 -10 -34 6
0 -60 -153 -93 -217 -15 -29 -30 -53 -34 -53 -5 0 -8 -5 -8 -11 0 -16 -86
-125 -143 -181 -75 -75 -247 -193 -247 -171 0 4 -4 3 -8 -3 -12 -18 -150 -65
-199 -68 -13 0 -23 -4 -23 -7 0 -3 -6 -6 -12 -7 -7 -1 -38 -4 -68 -7 -77 -8
-208 -9 -250 -1 -19 3 -48 9 -65 12 -82 16 -178 84 -229 161 -29 45 -64 151
-69 209 -2 23 -6 45 -9 50 -17 31 9 544 29 577 3 6 1 7 -5 3 -8 -5 -9 1 -2 21
9 28 20 116 34 268 3 28 5 50 6 50 3 0 8 38 16 110 4 39 8 79 10 90 4 33 16
138 19 170 2 17 4 30 5 30 1 0 3 14 5 30 1 17 5 55 9 85 4 30 9 73 12 95 2 22
6 56 9 76 3 20 8 55 10 79 2 24 7 61 11 84 3 23 8 59 10 81 2 22 6 54 8 70 2
17 7 57 10 90 6 61 14 119 21 165 3 14 7 52 10 85 3 33 8 71 10 85 2 14 7 50
10 80 4 30 9 69 11 85 4 28 10 74 18 165 2 19 7 55 10 80 4 25 9 63 12 85 3
22 7 42 9 44 3 2 0 13 -6 24 -8 14 -8 18 0 13 7 -5 11 7 12 36 1 24 3 52 5 63
2 11 6 38 8 60 12 98 15 115 22 126 5 8 3 9 -6 4 -9 -5 -11 -4 -6 4 9 14 13
38 20 111 3 30 8 67 11 81 3 14 6 49 7 77 2 29 5 52 8 52 3 0 6 17 7 38 1 20
4 57 7 82 12 95 19 155 19 168 0 6 3 12 6 12 3 0 6 16 5 35 -1 19 3 59 8 88 4
28 11 79 14 112 3 33 7 76 9 95 11 90 15 117 20 150 3 19 7 53 10 75 9 82 15
131 19 160 2 17 7 59 11 95 4 36 10 83 14 105 3 22 6 52 6 68 -1 15 2 27 5 27
3 0 6 17 6 38 1 20 5 60 8 87 3 28 9 76 12 108 l6 57 -911 0 c-877 0 -911 -1
-911 -18z"/>
</g>
</svg>
